{
  "accessors": [
    {
      "bufferView": 2,
      "componentType": 5126,
      "count": 5038,
      "max": [
        4.451879501342773,
        13.75498104095459,
        8.00119400024414
      ],
      "min": [
        -7.869473457336426,
        -0.1564870923757553,
        -9.831014633178711
      ],
      "type": "VEC3"
    },
    {
      "bufferView": 2,
      "byteOffset": 60456,
      "componentType": 5126,
      "count": 5038,
      "max": [
        0.9996873140335083,
        0.9992657899856567,
        0.9997777342796326
      ],
      "min": [
        -0.9993777275085449,
        -0.9996278882026672,
        -0.9986560344696045
      ],
      "type": "VEC3"
    },
    {
      "bufferView": 3,
      "componentType": 5126,
      "count": 5038,
      "max": [
        0.9998583197593689,
        0.9821243286132813,
        0.9974343180656433,
        1.0
      ],
      "min": [
        -0.999570369720459,
        -0.9998863339424133,
        -0.9908598065376282,
        1.0
      ],
      "type": "VEC4"
    },
    {
      "bufferView": 1,
      "componentType": 5126,
      "count": 5038,
      "max": [
        0.961397647857666,
        0.9928589463233948
      ],
      "min": [
        0.0426708348095417,
        0.284174382686615
      ],
      "type": "VEC2"
    },
    {
      "bufferView": 0,
      "componentType": 5125,
      "count": 29718,
      "type": "SCALAR"
    },
    {
      "bufferView": 2,
      "byteOffset": 120912,
      "componentType": 5126,
      "count": 5283,
      "max": [
        0.8505951166152954,
        3.626955032348633,
        8.030552864074707
      ],
      "min": [
        -3.1693854331970215,
        -0.16079340875148773,
        4.398168563842773
      ],
      "type": "VEC3"
    },
    {
      "bufferView": 2,
      "byteOffset": 184308,
      "componentType": 5126,
      "count": 5283,
      "max": [
        0.9999207854270935,
        0.9998519420623779,
        0.99992835521698
      ],
      "min": [
        -0.9996597766876221,
        -0.9997610449790955,
        -0.9997109174728394
      ],
      "type": "VEC3"
    },
    {
      "bufferView": 3,
      "byteOffset": 80608,
      "componentType": 5126,
      "count": 5283,
      "max": [
        0.9999925494194031,
        0.9998599290847778,
        0.9998933672904968,
        1.0
      ],
      "min": [
        -0.9999990463256836,
        -0.9998193383216858,
        -0.9998015761375427,
        -1.0
      ],
      "type": "VEC4"
    },
    {
      "bufferView": 1,
      "byteOffset": 40304,
      "componentType": 5126,
      "count": 5283,
      "max": [
        0.9773893356323242,
        0.2825087606906891
      ],
      "min": [
        0.00472104549407959,
        0.023822009563446045
      ],
      "type": "VEC2"
    },
    {
      "bufferView": 0,
      "byteOffset": 118872,
      "componentType": 5125,
      "count": 30024,
      "type": "SCALAR"
    },
    {
      "bufferView": 2,
      "byteOffset": 247704,
      "componentType": 5126,
      "count": 13292,
      "max": [
        11.752781867980957,
        7.180873394012451,
        8.447553634643555
      ],
      "min": [
        -14.077512741088867,
        -1.3266469240188599,
        -8.28691577911377
      ],
      "type": "VEC3"
    },
    {
      "bufferView": 2,
      "byteOffset": 407208,
      "componentType": 5126,
      "count": 13292,
      "max": [
        0.9999874830245972,
        0.999809741973877,
        0.9994514584541321
      ],
      "min": [
        -0.9999874830245972,
        -0.9987425208091736,
        -0.9999068975448608
      ],
      "type": "VEC3"
    },
    {
      "bufferView": 3,
      "byteOffset": 165136,
      "componentType": 5126,
      "count": 13292,
      "max": [
        0.9999015927314758,
        0.9208863973617554,
        0.9994779229164124,
        1.0
      ],
      "min": [
        -0.9999016523361206,
        -0.9997018575668335,
        -0.9981951713562012,
        -1.0
      ],
      "type": "VEC4"
    },
    {
      "bufferView": 1,
      "byteOffset": 82568,
      "componentType": 5126,
      "count": 13292,
      "max": [
        0.8190968036651611,
        0.30857062339782715
      ],
      "min": [
        0.4310910105705261,
        0.005119681358337402
      ],
      "type": "VEC2"
    },
    {
      "bufferView": 0,
      "byteOffset": 238968,
      "componentType": 5125,
      "count": 76632,
      "type": "SCALAR"
    }
  ],
  "asset": {
    "extras": {
      "author": "Mateo Hurtado (https://sketchfab.com/hurts113)",
      "license": "CC-BY-4.0 (http://creativecommons.org/licenses/by/4.0/)",
      "source": "https://sketchfab.com/3d-models/vyd-spacial-bug-e9bbefe9949b48a298336c3791a70da8",
      "title": "Vyd Spacial Bug"
    },
    "generator": "Sketchfab-15.50.0",
    "version": "2.0"
  },
  "bufferViews": [
    {
      "buffer": 0,
      "byteLength": 545496,
      "name": "floatBufferViews",
      "target": 34963
    },
    {
      "buffer": 0,
      "byteLength": 188904,
      "byteOffset": 545496,
      "byteStride": 8,
      "name": "floatBufferViews",
      "target": 34962
    },
    {
      "buffer": 0,
      "byteLength": 566712,
      "byteOffset": 734400,
      "byteStride": 12,
      "name": "floatBufferViews",
      "target": 34962
    },
    {
      "buffer": 0,
      "byteLength": 377808,
      "byteOffset": 1301112,
      "byteStride": 16,
      "name": "floatBufferViews",
      "target": 34962
    }
  ],
  "buffers": [
    {
      "byteLength": 1678920,
      "uri": "scene.bin"
    }
  ],
  "images": [
    {
      "uri": "textures/Default_Material1_baseColor.jpeg"
    },
    {
      "uri": "textures/Default_Material1_metallicRoughness.png"
    },
    {
      "uri": "textures/Default_Material1_emissive.jpeg"
    },
    {
      "uri": "textures/Default_Material1_normal.png"
    },
    {
      "uri": "textures/Default_Material_baseColor.jpeg"
    },
    {
      "uri": "textures/Default_Material_metallicRoughness.png"
    },
    {
      "uri": "textures/Default_Material_normal.png"
    },
    {
      "uri": "textures/Default_Material2_baseColor.jpeg"
    },
    {
      "uri": "textures/Default_Material2_metallicRoughness.png"
    },
    {
      "uri": "textures/Default_Material2_normal.png"
    }
  ],
  "materials": [
    {
      "doubleSided": true,
      "emissiveFactor": [
        1.0,
        1.0,
        1.0
      ],
      "emissiveTexture": {
        "index": 2
      },
      "name": "Default_Material1",
      "normalTexture": {
        "index": 3
      },
      "occlusionTexture": {
        "index": 1
      },
      "pbrMetallicRoughness": {
        "baseColorTexture": {
          "index": 0
        },
        "metallicRoughnessTexture": {
          "index": 1
        }
      }
    },
    {
      "doubleSided": true,
      "name": "Default_Material",
      "normalTexture": {
        "index": 6
      },
      "occlusionTexture": {
        "index": 5
      },
      "pbrMetallicRoughness": {
        "baseColorTexture": {
          "index": 4
        },
        "metallicRoughnessTexture": {
          "index": 5
        }
      }
    },
    {
      "doubleSided": true,
      "name": "Default_Material2",
      "normalTexture": {
        "index": 9
      },
      "occlusionTexture": {
        "index": 8
      },
      "pbrMetallicRoughness": {
        "baseColorTexture": {
          "index": 7
        },
        "metallicRoughnessTexture": {
          "index": 8
        }
      }
    }
  ],
  "meshes": [
    {
      "name": "CUERPO_L_Default Material1_0",
      "primitives": [
        {
          "attributes": {
            "NORMAL": 1,
            "POSITION": 0,
            "TANGENT": 2,
            "TEXCOORD_0": 3
          },
          "indices": 4,
          "material": 0,
          "mode": 4
        }
      ]
    },
    {
      "name": "CUERPO_L_Default Material_0",
      "primitives": [
        {
          "attributes": {
            "NORMAL": 6,
            "POSITION": 5,
            "TANGENT": 7,
            "TEXCOORD_0": 8
          },
          "indices": 9,
          "material": 1,
          "mode": 4
        }
      ]
    },
    {
      "name": "CUERPO_L_Default Material2_0",
      "primitives": [
        {
          "attributes": {
            "NORMAL": 11,
            "POSITION": 10,
            "TANGENT": 12,
            "TEXCOORD_0": 13
          },
          "indices": 14,
          "material": 2,
          "mode": 4
        }
      ]
    }
  ],
  "nodes": [
    {
      "children": [
        1
      ],
      "matrix": [
        1.0,
        0.0,
        0.0,
        0.0,
        0.0,
        2.220446049250313e-16,
        -1.0,
        0.0,
        0.0,
        1.0,
        2.220446049250313e-16,
        0.0,
        0.0,
        0.0,
        0.0,
        1.0
      ],
      "name": "Sketchfab_model"
    },
    {
      "children": [
        2
      ],
      "matrix": [
        0.009999999776482582,
        0.0,
        0.0,
        0.0,
        0.0,
        0.0,
        0.009999999776482582,
        0.0,
        0.0,
        -0.009999999776482582,
        0.0,
        0.0,
        0.0,
        0.0,
        0.0,
        1.0
      ],
      "name": "48d8552aaded40cf9a22f79872b67653.fbx"
    },
    {
      "children": [
        3
      ],
      "name": "RootNode"
    },
    {
      "children": [
        4,
        5,
        6
      ],
      "name": "CUERPO_L"
    },
    {
      "mesh": 0,
      "name": "CUERPO_L_Default Material1_0"
    },
    {
      "mesh": 1,
      "name": "CUERPO_L_Default Material_0"
    },
    {
      "mesh": 2,
      "name": "CUERPO_L_Default Material2_0"
    }
  ],
  "samplers": [
    {
      "magFilter": 9729,
      "minFilter": 9987,
      "wrapS": 10497,
      "wrapT": 10497
    }
  ],
  "scene": 0,
  "scenes": [
    {
      "name": "Sketchfab_Scene",
      "nodes": [
        0
      ]
    }
  ],
  "textures": [
    {
      "sampler": 0,
      "source": 0
    },
    {
      "sampler": 0,
      "source": 1
    },
    {
      "sampler": 0,
      "source": 2
    },
    {
      "sampler": 0,
      "source": 3
    },
    {
      "sampler": 0,
      "source": 4
    },
    {
      "sampler": 0,
      "source": 5
    },
    {
      "sampler": 0,
      "source": 6
    },
    {
      "sampler": 0,
      "source": 7
    },
    {
      "sampler": 0,
      "source": 8
    },
    {
      "sampler": 0,
      "source": 9
    }
  ]
}
